<?xml version="1.0" encoding="utf-8"?>
<!-- Generator: Adobe Illustrator 22.0.0, SVG Export Plug-In . SVG Version: 6.00 Build 0)  -->
<svg version="1.1" id="Layer_1" xmlns="http://www.w3.org/2000/svg" xmlns:xlink="http://www.w3.org/1999/xlink" x="0px" y="0px"
	 viewBox="0 0 595.3 841.9" style="enable-background:new 0 0 595.3 841.9;" xml:space="preserve">
<style type="text/css">
	.st0{fill:none;stroke:#000000;stroke-miterlimit:10;}
</style>
<g>
	<g>
		<polygon points="313.6,432.2 297.5,404.6 293.8,404.6 293.8,442.4 293.8,446.6 298.1,446.6 298.1,413.2 311.4,435.9 		"/>
		<polygon points="333.8,404.6 315.7,435.8 315.7,435.8 313.5,439.5 314.6,441.3 316.7,441.3 333.2,413 333.2,446.6 337.4,446.6 
			337.4,404.6 		"/>
	</g>
	<path d="M154.5,414.7c-1.9-3.2-4.5-5.7-7.9-7.4c-3.4-1.8-7.3-2.7-11.8-2.7h-17.1v42h4.4v-3.8v-4.2v-30.1h12.4
		c3.7,0,6.9,0.7,9.7,2.2c2.8,1.5,4.9,3.5,6.4,6.1c1.5,2.6,2.3,5.6,2.3,8.9s-0.8,6.3-2.3,8.9c-1.5,2.6-3.7,4.6-6.4,6.1
		c-2.8,1.5-6,2.2-9.7,2.2h-8v3.8h8.2c4.4,0,8.4-0.9,11.8-2.7c3.4-1.8,6-4.3,7.9-7.4c1.9-3.2,2.8-6.8,2.8-10.9
		S156.4,417.9,154.5,414.7z"/>
	<path d="M190.5,432.2c3.1-1,5.4-2.6,7.1-4.9c1.7-2.3,2.5-5,2.5-8.3c0-4.5-1.5-8-4.6-10.6c-3-2.6-7.2-3.8-12.6-3.8h-15.7v42h4.4
		v-12.2v-1.1v-3.8v-0.4v-20.7h11.2c4.2,0,7.3,0.9,9.5,2.7c2.2,1.8,3.3,4.4,3.3,7.8c0,3.3-1.1,5.9-3.3,7.7c-2.2,1.8-5.4,2.8-9.5,2.8
		h-6.6v3.8h6.7c1.2,0,2.3-0.1,3.4-0.2l9.6,13.5h4.9L190.5,432.2z"/>
	<g>
		<polygon points="215.1,408.5 218.8,408.5 239.4,408.5 239.4,404.6 210.6,404.6 210.6,408.5 		"/>
		<polygon points="215.1,442.8 215.1,427.2 236.8,427.2 236.8,423.4 215.1,423.4 215.1,412.3 210.6,412.3 210.6,446.6 240.3,446.6 
			240.3,442.8 		"/>
	</g>
	<polygon points="267.6,404.6 263.3,404.6 244.1,446.6 248.7,446.6 253.7,435.4 255.3,431.8 265.4,409.3 275.5,431.8 259.9,431.8 
		258.3,435.4 277.1,435.4 282.2,446.6 286.8,446.6 	"/>
	<path d="M353.7,445.5c-2.9-1-5.1-2.3-6.6-4l1.7-3.4c1.5,1.5,3.5,2.8,6.1,3.7c2.5,0.9,5.1,1.4,7.8,1.4c3.8,0,6.6-0.7,8.5-2.1
		c1.9-1.4,2.8-3.2,2.8-5.4c0-1.7-0.5-3-1.5-4c-1-1-2.3-1.8-3.8-2.3c-1.5-0.5-3.5-1.1-6.2-1.8c-3.2-0.8-5.7-1.6-7.6-2.3
		c-1.9-0.7-3.5-1.9-4.8-3.4c-1.3-1.5-2-3.6-2-6.2c0-2.1,0.6-4.1,1.7-5.8c1.1-1.7,2.8-3.1,5.2-4.2c2.3-1,5.2-1.6,8.6-1.6
		c2.4,0,4.7,0.3,7,1c2.3,0.7,4.3,1.6,6,2.7l-1.5,3.5c-1.8-1.2-3.6-2-5.6-2.6c-2-0.6-4-0.9-5.9-0.9c-3.7,0-6.5,0.7-8.3,2.1
		c-1.9,1.4-2.8,3.3-2.8,5.5c0,1.7,0.5,3,1.5,4s2.3,1.8,3.8,2.3c1.5,0.5,3.6,1.1,6.2,1.8c3.1,0.8,5.6,1.5,7.5,2.3
		c1.9,0.7,3.5,1.9,4.8,3.4c1.3,1.5,2,3.5,2,6.1c0,2.1-0.6,4.1-1.7,5.8c-1.1,1.7-2.9,3.1-5.3,4.1c-2.4,1-5.3,1.5-8.7,1.5
		C359.6,447,356.6,446.5,353.7,445.5z"/>
	<path d="M388,404.6h4.4v42H388V404.6z"/>
	<g>
		<polygon points="410.6,412.3 406.1,412.3 406.1,446.6 410.6,446.6 410.6,428.8 432.3,428.8 432.3,425 410.6,425 		"/>
		<polygon points="406.1,404.6 406.1,408.5 410.6,408.5 413.3,408.5 434.9,408.5 434.9,404.6 		"/>
	</g>
	<g>
		<polygon points="454.2,424.6 442.1,404.6 437.3,404.6 451.9,428.4 		"/>
		<polygon points="470.9,404.6 456.5,428.2 456.4,428.2 454.1,432.1 454.1,432.1 454.1,446.6 458.5,446.6 458.5,432.1 475.3,404.6 
					"/>
	</g>
	<rect x="126.4" y="423.4" width="4.4" height="23.2"/>
	<path d="M317.1,433.3"/>
	<path d="M316.4,434.6"/>
	<path d="M311,436.2"/>
</g>
<rect x="90.5" y="382.1" class="st0" width="412" height="87"/>
</svg>
